<svg xmlns="http://www.w3.org/2000/svg" width="24.349" height="23.842" viewBox="0 0 24.349 23.842">
  <g id="github" transform="translate(60 -5.329)">
    <g id="Group_25364" data-name="Group 25364" transform="translate(0 5.329)">
      <path id="Path_14264" data-name="Path 14264" d="M12.173,5.329A12.23,12.23,0,0,0,8.327,29.15c.609.113.831-.265.831-.589,0-.291-.011-1.059-.017-2.079-3.386.738-4.1-1.639-4.1-1.639a3.228,3.228,0,0,0-1.351-1.788c-1.106-.758.082-.743.082-.743a2.557,2.557,0,0,1,1.864,1.26,2.587,2.587,0,0,0,3.544,1.015,2.609,2.609,0,0,1,.773-1.634c-2.7-.309-5.545-1.357-5.545-6.04a4.738,4.738,0,0,1,1.254-3.281A4.4,4.4,0,0,1,5.78,10.4s1.023-.329,3.348,1.252a11.491,11.491,0,0,1,6.1,0c2.324-1.581,3.345-1.252,3.345-1.252a4.411,4.411,0,0,1,.122,3.234,4.729,4.729,0,0,1,1.251,3.281c0,4.695-2.846,5.728-5.558,6.031a2.924,2.924,0,0,1,.826,2.263c0,1.634-.015,2.952-.015,3.353,0,.327.219.708.837.587A12.231,12.231,0,0,0,12.173,5.329Z" transform="translate(-60 -5.329)"/>
    </g>
  </g>
</svg>
