<svg xmlns="http://www.w3.org/2000/svg" xmlns:xlink="http://www.w3.org/1999/xlink" width="1413.509" height="208.919" viewBox="0 0 1413.509 208.919">
  <defs>
    <clipPath id="clip-path">
      <rect id="Rectangle_8061" data-name="Rectangle 8061" width="183.507" height="183.507" fill="none"/>
    </clipPath>
    <linearGradient id="linear-gradient" x1="0.18" y1="0.133" x2="0.861" y2="0.792" gradientUnits="objectBoundingBox">
      <stop offset="0" stop-color="#56b7e5"/>
      <stop offset="1" stop-color="#5c77b9"/>
    </linearGradient>
    <filter id="Path_13437" x="1253.107" y="42.118" width="140.704" height="140.704" filterUnits="userSpaceOnUse">
      <feOffset dx="3" dy="3" input="SourceAlpha"/>
      <feGaussianBlur stdDeviation="5" result="blur"/>
      <feFlood flood-color="#0042f7" flood-opacity="0.294"/>
      <feComposite operator="in" in2="blur"/>
      <feComposite in="SourceGraphic"/>
    </filter>
    <filter id="Path_13437-2" x="1001.107" y="42.118" width="140.704" height="140.704" filterUnits="userSpaceOnUse">
      <feOffset dx="3" dy="3" input="SourceAlpha"/>
      <feGaussianBlur stdDeviation="5" result="blur-2"/>
      <feFlood flood-color="#0042f7" flood-opacity="0.294"/>
      <feComposite operator="in" in2="blur-2"/>
      <feComposite in="SourceGraphic"/>
    </filter>
    <filter id="Path_13437-3" x="751.105" y="42.118" width="140.704" height="140.704" filterUnits="userSpaceOnUse">
      <feOffset dx="3" dy="3" input="SourceAlpha"/>
      <feGaussianBlur stdDeviation="5" result="blur-3"/>
      <feFlood flood-color="#0042f7" flood-opacity="0.294"/>
      <feComposite operator="in" in2="blur-3"/>
      <feComposite in="SourceGraphic"/>
    </filter>
    <filter id="Path_13437-4" x="23.105" y="42.118" width="140.704" height="140.704" filterUnits="userSpaceOnUse">
      <feOffset dx="3" dy="3" input="SourceAlpha"/>
      <feGaussianBlur stdDeviation="5" result="blur-4"/>
      <feFlood flood-color="#0042f7" flood-opacity="0.294"/>
      <feComposite operator="in" in2="blur-4"/>
      <feComposite in="SourceGraphic"/>
    </filter>
    <filter id="Path_13437-5" x="265.13" y="42.118" width="140.704" height="140.704" filterUnits="userSpaceOnUse">
      <feOffset dx="3" dy="3" input="SourceAlpha"/>
      <feGaussianBlur stdDeviation="5" result="blur-5"/>
      <feFlood flood-color="#0042f7" flood-opacity="0.294"/>
      <feComposite operator="in" in2="blur-5"/>
      <feComposite in="SourceGraphic"/>
    </filter>
    <filter id="Path_13437-6" x="501.107" y="42.118" width="140.704" height="140.704" filterUnits="userSpaceOnUse">
      <feOffset dx="3" dy="3" input="SourceAlpha"/>
      <feGaussianBlur stdDeviation="5" result="blur-6"/>
      <feFlood flood-color="#0042f7" flood-opacity="0.294"/>
      <feComposite operator="in" in2="blur-6"/>
      <feComposite in="SourceGraphic"/>
    </filter>
  </defs>
  <g id="Group_97326" data-name="Group 97326" transform="translate(-251.999 -1725)">
    <g id="Group_23635" data-name="Group 23635" transform="translate(0 -6)">
      <g id="Group_23575" data-name="Group 23575" transform="translate(206.79 11)">
        <g id="Group_23568" data-name="Group 23568" transform="translate(2)">
          <path id="Icon_ionic-ios-arrow-forward" data-name="Icon ionic-ios-arrow-forward" d="M18.034,9.878,11.6.711a.732.732,0,0,1,0-1.257,1.56,1.56,0,0,1,1.72,0l7.286,9.793a.729.729,0,0,1,.035,1.227L13.328,20.3a1.555,1.555,0,0,1-1.72,0,.732.732,0,0,1,0-1.257Z" transform="translate(458.247 1821.14)" fill="#56b4e3"/>
          <path id="Icon_ionic-ios-arrow-forward-2" data-name="Icon ionic-ios-arrow-forward" d="M18.034,9.878,11.6.711a.732.732,0,0,1,0-1.257,1.56,1.56,0,0,1,1.72,0l7.286,9.793a.729.729,0,0,1,.035,1.227L13.328,20.3a1.555,1.555,0,0,1-1.72,0,.732.732,0,0,1,0-1.257Z" transform="translate(466.247 1821.14)" fill="#56b4e3"/>
          <path id="Icon_ionic-ios-arrow-forward-3" data-name="Icon ionic-ios-arrow-forward" d="M18.034,9.878,11.6.711a.732.732,0,0,1,0-1.257,1.56,1.56,0,0,1,1.72,0l7.286,9.793a.729.729,0,0,1,.035,1.227L13.328,20.3a1.555,1.555,0,0,1-1.72,0,.732.732,0,0,1,0-1.257Z" transform="translate(474.247 1821.14)" fill="#56b4e3"/>
          <path id="Icon_ionic-ios-arrow-forward-4" data-name="Icon ionic-ios-arrow-forward" d="M18.034,9.878,11.6.711a.732.732,0,0,1,0-1.257,1.56,1.56,0,0,1,1.72,0l7.286,9.793a.729.729,0,0,1,.035,1.227L13.328,20.3a1.555,1.555,0,0,1-1.72,0,.732.732,0,0,1,0-1.257Z" transform="translate(490.247 1821.14)" fill="#56b4e3"/>
          <path id="Icon_ionic-ios-arrow-forward-5" data-name="Icon ionic-ios-arrow-forward" d="M18.034,9.878,11.6.711a.732.732,0,0,1,0-1.257,1.56,1.56,0,0,1,1.72,0l7.286,9.793a.729.729,0,0,1,.035,1.227L13.328,20.3a1.555,1.555,0,0,1-1.72,0,.732.732,0,0,1,0-1.257Z" transform="translate(482.247 1821.14)" fill="#56b4e3"/>
          <path id="Icon_ionic-ios-arrow-forward-6" data-name="Icon ionic-ios-arrow-forward" d="M18.034,9.878,11.6.711a.732.732,0,0,1,0-1.257,1.56,1.56,0,0,1,1.72,0l7.286,9.793a.729.729,0,0,1,.035,1.227L13.328,20.3a1.555,1.555,0,0,1-1.72,0,.732.732,0,0,1,0-1.257Z" transform="translate(498.247 1821.14)" fill="#56b4e3"/>
        </g>
      </g>
      <g id="Group_23576" data-name="Group 23576" transform="translate(450.074 11)">
        <g id="Group_23568-2" data-name="Group 23568" transform="translate(2)">
          <path id="Icon_ionic-ios-arrow-forward-7" data-name="Icon ionic-ios-arrow-forward" d="M18.034,9.878,11.6.711a.732.732,0,0,1,0-1.257,1.56,1.56,0,0,1,1.72,0l7.286,9.793a.729.729,0,0,1,.035,1.227L13.328,20.3a1.555,1.555,0,0,1-1.72,0,.732.732,0,0,1,0-1.257Z" transform="translate(458.247 1821.14)" fill="#56b4e3"/>
          <path id="Icon_ionic-ios-arrow-forward-8" data-name="Icon ionic-ios-arrow-forward" d="M18.034,9.878,11.6.711a.732.732,0,0,1,0-1.257,1.56,1.56,0,0,1,1.72,0l7.286,9.793a.729.729,0,0,1,.035,1.227L13.328,20.3a1.555,1.555,0,0,1-1.72,0,.732.732,0,0,1,0-1.257Z" transform="translate(466.247 1821.14)" fill="#56b4e3"/>
          <path id="Icon_ionic-ios-arrow-forward-9" data-name="Icon ionic-ios-arrow-forward" d="M18.034,9.878,11.6.711a.732.732,0,0,1,0-1.257,1.56,1.56,0,0,1,1.72,0l7.286,9.793a.729.729,0,0,1,.035,1.227L13.328,20.3a1.555,1.555,0,0,1-1.72,0,.732.732,0,0,1,0-1.257Z" transform="translate(474.247 1821.14)" fill="#56b4e3"/>
          <path id="Icon_ionic-ios-arrow-forward-10" data-name="Icon ionic-ios-arrow-forward" d="M18.034,9.878,11.6.711a.732.732,0,0,1,0-1.257,1.56,1.56,0,0,1,1.72,0l7.286,9.793a.729.729,0,0,1,.035,1.227L13.328,20.3a1.555,1.555,0,0,1-1.72,0,.732.732,0,0,1,0-1.257Z" transform="translate(490.247 1821.14)" fill="#56b4e3"/>
          <path id="Icon_ionic-ios-arrow-forward-11" data-name="Icon ionic-ios-arrow-forward" d="M18.034,9.878,11.6.711a.732.732,0,0,1,0-1.257,1.56,1.56,0,0,1,1.72,0l7.286,9.793a.729.729,0,0,1,.035,1.227L13.328,20.3a1.555,1.555,0,0,1-1.72,0,.732.732,0,0,1,0-1.257Z" transform="translate(482.247 1821.14)" fill="#56b4e3"/>
          <path id="Icon_ionic-ios-arrow-forward-12" data-name="Icon ionic-ios-arrow-forward" d="M18.034,9.878,11.6.711a.732.732,0,0,1,0-1.257,1.56,1.56,0,0,1,1.72,0l7.286,9.793a.729.729,0,0,1,.035,1.227L13.328,20.3a1.555,1.555,0,0,1-1.72,0,.732.732,0,0,1,0-1.257Z" transform="translate(498.247 1821.14)" fill="#56b4e3"/>
        </g>
      </g>
      <g id="Group_23577" data-name="Group 23577" transform="translate(697.357 11)">
        <g id="Group_23568-3" data-name="Group 23568" transform="translate(2)">
          <path id="Icon_ionic-ios-arrow-forward-13" data-name="Icon ionic-ios-arrow-forward" d="M18.034,9.878,11.6.711a.732.732,0,0,1,0-1.257,1.56,1.56,0,0,1,1.72,0l7.286,9.793a.729.729,0,0,1,.035,1.227L13.328,20.3a1.555,1.555,0,0,1-1.72,0,.732.732,0,0,1,0-1.257Z" transform="translate(458.247 1821.14)" fill="#56b4e3"/>
          <path id="Icon_ionic-ios-arrow-forward-14" data-name="Icon ionic-ios-arrow-forward" d="M18.034,9.878,11.6.711a.732.732,0,0,1,0-1.257,1.56,1.56,0,0,1,1.72,0l7.286,9.793a.729.729,0,0,1,.035,1.227L13.328,20.3a1.555,1.555,0,0,1-1.72,0,.732.732,0,0,1,0-1.257Z" transform="translate(466.247 1821.14)" fill="#56b4e3"/>
          <path id="Icon_ionic-ios-arrow-forward-15" data-name="Icon ionic-ios-arrow-forward" d="M18.034,9.878,11.6.711a.732.732,0,0,1,0-1.257,1.56,1.56,0,0,1,1.72,0l7.286,9.793a.729.729,0,0,1,.035,1.227L13.328,20.3a1.555,1.555,0,0,1-1.72,0,.732.732,0,0,1,0-1.257Z" transform="translate(474.247 1821.14)" fill="#56b4e3"/>
          <path id="Icon_ionic-ios-arrow-forward-16" data-name="Icon ionic-ios-arrow-forward" d="M18.034,9.878,11.6.711a.732.732,0,0,1,0-1.257,1.56,1.56,0,0,1,1.72,0l7.286,9.793a.729.729,0,0,1,.035,1.227L13.328,20.3a1.555,1.555,0,0,1-1.72,0,.732.732,0,0,1,0-1.257Z" transform="translate(490.247 1821.14)" fill="#56b4e3"/>
          <path id="Icon_ionic-ios-arrow-forward-17" data-name="Icon ionic-ios-arrow-forward" d="M18.034,9.878,11.6.711a.732.732,0,0,1,0-1.257,1.56,1.56,0,0,1,1.72,0l7.286,9.793a.729.729,0,0,1,.035,1.227L13.328,20.3a1.555,1.555,0,0,1-1.72,0,.732.732,0,0,1,0-1.257Z" transform="translate(482.247 1821.14)" fill="#56b4e3"/>
          <path id="Icon_ionic-ios-arrow-forward-18" data-name="Icon ionic-ios-arrow-forward" d="M18.034,9.878,11.6.711a.732.732,0,0,1,0-1.257,1.56,1.56,0,0,1,1.72,0l7.286,9.793a.729.729,0,0,1,.035,1.227L13.328,20.3a1.555,1.555,0,0,1-1.72,0,.732.732,0,0,1,0-1.257Z" transform="translate(498.247 1821.14)" fill="#56b4e3"/>
        </g>
      </g>
      <g id="Group_23578" data-name="Group 23578" transform="translate(948.79 11)">
        <g id="Group_23568-4" data-name="Group 23568" transform="translate(2)">
          <path id="Icon_ionic-ios-arrow-forward-19" data-name="Icon ionic-ios-arrow-forward" d="M18.034,9.878,11.6.711a.732.732,0,0,1,0-1.257,1.56,1.56,0,0,1,1.72,0l7.286,9.793a.729.729,0,0,1,.035,1.227L13.328,20.3a1.555,1.555,0,0,1-1.72,0,.732.732,0,0,1,0-1.257Z" transform="translate(458.247 1821.14)" fill="#56b4e3"/>
          <path id="Icon_ionic-ios-arrow-forward-20" data-name="Icon ionic-ios-arrow-forward" d="M18.034,9.878,11.6.711a.732.732,0,0,1,0-1.257,1.56,1.56,0,0,1,1.72,0l7.286,9.793a.729.729,0,0,1,.035,1.227L13.328,20.3a1.555,1.555,0,0,1-1.72,0,.732.732,0,0,1,0-1.257Z" transform="translate(466.247 1821.14)" fill="#56b4e3"/>
          <path id="Icon_ionic-ios-arrow-forward-21" data-name="Icon ionic-ios-arrow-forward" d="M18.034,9.878,11.6.711a.732.732,0,0,1,0-1.257,1.56,1.56,0,0,1,1.72,0l7.286,9.793a.729.729,0,0,1,.035,1.227L13.328,20.3a1.555,1.555,0,0,1-1.72,0,.732.732,0,0,1,0-1.257Z" transform="translate(474.247 1821.14)" fill="#56b4e3"/>
          <path id="Icon_ionic-ios-arrow-forward-22" data-name="Icon ionic-ios-arrow-forward" d="M18.034,9.878,11.6.711a.732.732,0,0,1,0-1.257,1.56,1.56,0,0,1,1.72,0l7.286,9.793a.729.729,0,0,1,.035,1.227L13.328,20.3a1.555,1.555,0,0,1-1.72,0,.732.732,0,0,1,0-1.257Z" transform="translate(490.247 1821.14)" fill="#56b4e3"/>
          <path id="Icon_ionic-ios-arrow-forward-23" data-name="Icon ionic-ios-arrow-forward" d="M18.034,9.878,11.6.711a.732.732,0,0,1,0-1.257,1.56,1.56,0,0,1,1.72,0l7.286,9.793a.729.729,0,0,1,.035,1.227L13.328,20.3a1.555,1.555,0,0,1-1.72,0,.732.732,0,0,1,0-1.257Z" transform="translate(482.247 1821.14)" fill="#56b4e3"/>
          <path id="Icon_ionic-ios-arrow-forward-24" data-name="Icon ionic-ios-arrow-forward" d="M18.034,9.878,11.6.711a.732.732,0,0,1,0-1.257,1.56,1.56,0,0,1,1.72,0l7.286,9.793a.729.729,0,0,1,.035,1.227L13.328,20.3a1.555,1.555,0,0,1-1.72,0,.732.732,0,0,1,0-1.257Z" transform="translate(498.247 1821.14)" fill="#56b4e3"/>
        </g>
      </g>
      <g id="Group_25693" data-name="Group 25693" transform="translate(-32.21 11)">
        <g id="Group_23568-5" data-name="Group 23568" transform="translate(2)">
          <path id="Icon_ionic-ios-arrow-forward-25" data-name="Icon ionic-ios-arrow-forward" d="M18.034,9.878,11.6.711a.732.732,0,0,1,0-1.257,1.56,1.56,0,0,1,1.72,0l7.286,9.793a.729.729,0,0,1,.035,1.227L13.328,20.3a1.555,1.555,0,0,1-1.72,0,.732.732,0,0,1,0-1.257Z" transform="translate(458.247 1821.14)" fill="#56b4e3"/>
          <path id="Icon_ionic-ios-arrow-forward-26" data-name="Icon ionic-ios-arrow-forward" d="M18.034,9.878,11.6.711a.732.732,0,0,1,0-1.257,1.56,1.56,0,0,1,1.72,0l7.286,9.793a.729.729,0,0,1,.035,1.227L13.328,20.3a1.555,1.555,0,0,1-1.72,0,.732.732,0,0,1,0-1.257Z" transform="translate(466.247 1821.14)" fill="#56b4e3"/>
          <path id="Icon_ionic-ios-arrow-forward-27" data-name="Icon ionic-ios-arrow-forward" d="M18.034,9.878,11.6.711a.732.732,0,0,1,0-1.257,1.56,1.56,0,0,1,1.72,0l7.286,9.793a.729.729,0,0,1,.035,1.227L13.328,20.3a1.555,1.555,0,0,1-1.72,0,.732.732,0,0,1,0-1.257Z" transform="translate(474.247 1821.14)" fill="#56b4e3"/>
          <path id="Icon_ionic-ios-arrow-forward-28" data-name="Icon ionic-ios-arrow-forward" d="M18.034,9.878,11.6.711a.732.732,0,0,1,0-1.257,1.56,1.56,0,0,1,1.72,0l7.286,9.793a.729.729,0,0,1,.035,1.227L13.328,20.3a1.555,1.555,0,0,1-1.72,0,.732.732,0,0,1,0-1.257Z" transform="translate(490.247 1821.14)" fill="#56b4e3"/>
          <path id="Icon_ionic-ios-arrow-forward-29" data-name="Icon ionic-ios-arrow-forward" d="M18.034,9.878,11.6.711a.732.732,0,0,1,0-1.257,1.56,1.56,0,0,1,1.72,0l7.286,9.793a.729.729,0,0,1,.035,1.227L13.328,20.3a1.555,1.555,0,0,1-1.72,0,.732.732,0,0,1,0-1.257Z" transform="translate(482.247 1821.14)" fill="#56b4e3"/>
          <path id="Icon_ionic-ios-arrow-forward-30" data-name="Icon ionic-ios-arrow-forward" d="M18.034,9.878,11.6.711a.732.732,0,0,1,0-1.257,1.56,1.56,0,0,1,1.72,0l7.286,9.793a.729.729,0,0,1,.035,1.227L13.328,20.3a1.555,1.555,0,0,1-1.72,0,.732.732,0,0,1,0-1.257Z" transform="translate(498.247 1821.14)" fill="#56b4e3"/>
        </g>
      </g>
    </g>
    <g id="Group_97320" data-name="Group 97320">
      <g id="Group_23567" data-name="Group 23567" transform="translate(1665.508 1933.919) rotate(180)">
        <g id="Group_23562" data-name="Group 23562">
          <g id="Group_23558" data-name="Group 23558">
            <g id="Group_23561" data-name="Group 23561">
              <path id="Path_13435" data-name="Path 13435" d="M60.329,157.189a1.02,1.02,0,0,1-.243-.031l-.124-.034A81.48,81.48,0,0,1,24.229,20.589a1.054,1.054,0,1,1,1.479,1.5A79.347,79.347,0,0,0,60.376,155.051a1.177,1.177,0,0,1,.866,1.327.985.985,0,0,1-.913.812m77.756-20.453a1.054,1.054,0,0,1-.742-1.8A79.347,79.347,0,0,0,102.58,2.065l.151-1.051L103.023,0l-.292,1.013.362-.994A81.482,81.482,0,0,1,138.827,136.43a1.049,1.049,0,0,1-.742.306" transform="translate(11.571 20.892)" fill="#56b4e3"/>
              <path id="Path_13436" data-name="Path 13436" d="M85.256,133.565A1.054,1.054,0,0,1,85,131.487,66.712,66.712,0,0,0,116.8,20.445a1.14,1.14,0,0,1-.042-1.558.978.978,0,0,1,1.423-.048c0,.007.144.152.151.158A68.827,68.827,0,0,1,85.51,133.533a.993.993,0,0,1-.254.032M20.08,114.935a.981.981,0,0,1-.7-.29c-.011-.014-.09-.095-.1-.108A68.824,68.824,0,0,1,52.011.032a1.055,1.055,0,0,1,.513,2.047A66.71,66.71,0,0,0,20.82,113.1a1.1,1.1,0,0,1,.015,1.52,1.077,1.077,0,0,1-.755.319" transform="translate(24.243 32.679)" fill="#6883c0"/>
              <g transform="matrix(-1, 0, 0, -1, 1413.51, 208.92)" filter="url(#Path_13437)">
                <path id="Path_13437-7" data-name="Path 13437" d="M110.7,55.352A55.352,55.352,0,1,1,55.352,0,55.352,55.352,0,0,1,110.7,55.352" transform="translate(1375.81 164.82) rotate(180)" fill="url(#linear-gradient)"/>
              </g>
              <path id="Path_13438" data-name="Path 13438" d="M57.111,114.22A57.11,57.11,0,1,1,114.22,57.108,57.177,57.177,0,0,1,57.111,114.22m0-110.7A53.594,53.594,0,1,0,110.7,57.108,53.654,53.654,0,0,0,57.111,3.515" transform="translate(35.94 42.34)" fill="#fff"/>
              <path id="Path_13439" data-name="Path 13439" d="M1.055,54.143A1.055,1.055,0,0,1,0,53.088V1.055a1.055,1.055,0,1,1,2.11,0V53.088a1.055,1.055,0,0,1-1.055,1.055" transform="translate(91.996 3.466)" fill="#57aadc"/>
              <path id="Path_13440" data-name="Path 13440" d="M9.517,4.758A4.758,4.758,0,1,0,4.759,9.517,4.758,4.758,0,0,0,9.517,4.758" transform="translate(88.291)" fill="#57aadc"/>
            </g>
          </g>
        </g>
      </g>
      <g id="Business_Audit" transform="translate(1547.158 1808.388)">
        <g id="Group_23580" data-name="Group 23580" transform="translate(3.11 3)">
          <path id="Path_13481" data-name="Path 13481" d="M18.753,12.463h19.94a1.627,1.627,0,0,0,0-3.254H18.753a1.627,1.627,0,1,0,0,3.254Z" transform="translate(-6.649 -4.568)" fill="#fff"/>
          <path id="Path_13482" data-name="Path 13482" d="M28.219,19.434a.747.747,0,0,0,.748.748h15a.748.748,0,0,0,0-1.5h-15A.748.748,0,0,0,28.219,19.434Z" transform="translate(-9.45 -6.961)" fill="#fff"/>
          <path id="Path_13483" data-name="Path 13483" d="M20.252,17.416H15.611a1.246,1.246,0,0,0-1.246,1.246V23.3a1.246,1.246,0,0,0,1.246,1.246h4.641A1.246,1.246,0,0,0,21.5,23.3V18.662A1.246,1.246,0,0,0,20.252,17.416ZM19.546,20.8,17.9,22.45a.747.747,0,0,1-1.057,0l-.806-.806a.747.747,0,0,1,1.057-1.057l.259.258,1.137-1.1A.747.747,0,0,1,19.546,20.8Z" transform="translate(-5.952 -6.64)" fill="#fff"/>
          <path id="Path_13484" data-name="Path 13484" d="M20.252,29.163H15.611a1.246,1.246,0,0,0-1.246,1.246V35.05A1.246,1.246,0,0,0,15.611,36.3h4.641A1.246,1.246,0,0,0,21.5,35.05V30.409A1.246,1.246,0,0,0,20.252,29.163Zm-.705,3.2L17.9,34.012a.747.747,0,0,1-1.057,0l-.806-.806a.747.747,0,0,1,1.057-1.057l.259.258,1.137-1.1a.747.747,0,1,1,1.057,1.057Z" transform="translate(-5.952 -9.606)" fill="#fff"/>
          <path id="Path_13485" data-name="Path 13485" d="M20.252,40.91H15.611a1.246,1.246,0,0,0-1.246,1.246V46.8a1.246,1.246,0,0,0,1.246,1.246h4.641A1.246,1.246,0,0,0,21.5,46.8V42.156A1.246,1.246,0,0,0,20.252,40.91Zm-.705,3.018L17.9,45.575a.747.747,0,0,1-1.057,0l-.806-.806a.747.747,0,1,1,1.057-1.057l.259.258,1.137-1.1a.747.747,0,1,1,1.057,1.057Z" transform="translate(-5.952 -12.572)" fill="#fff"/>
          <path id="Path_13486" data-name="Path 13486" d="M50.111,41.98,46,36.546a1.486,1.486,0,0,0-2.078-.284l-.02.015-.563-.743A10.523,10.523,0,0,0,43.7,21.424c-.21-.245-.432-.476-.661-.7V8.533A5.539,5.539,0,0,0,37.507,3H11.921A5.539,5.539,0,0,0,6.388,8.533V39.557a5.909,5.909,0,0,0,3.958,11.052,5.513,5.513,0,0,0,1.575.231H37.507a5.539,5.539,0,0,0,5.533-5.533V43.68L44.8,46a3.332,3.332,0,0,0,5.315-4.022Zm-5.394-13A9.043,9.043,0,1,1,42.566,22.4,9.055,9.055,0,0,1,44.717,28.98ZM10.693,44.572,9.047,46.219a.747.747,0,0,1-1.057,0l-.806-.806a.747.747,0,1,1,1.057-1.057l.259.258,1.137-1.1a.747.747,0,0,1,1.057,1.057Zm30.851.735a4.043,4.043,0,0,1-4.038,4.038H12.859a5.94,5.94,0,0,0,1.694-2.4h17a.748.748,0,0,0,0-1.5H14.915a5.855,5.855,0,0,0-.205-2.243H37.9a.748.748,0,0,0,0-1.5H14.039a5.888,5.888,0,0,0-6.156-2.673V8.533A4.043,4.043,0,0,1,11.921,4.5H37.507a4.043,4.043,0,0,1,4.038,4.038V19.518a10.5,10.5,0,0,0-10.382-.74.734.734,0,0,0-.593-.315H22.627a.748.748,0,0,0,0,1.5h6.63A10.3,10.3,0,0,0,26.3,23.507H22.627a.748.748,0,1,0,0,1.5h3.065a10.6,10.6,0,0,0-.473,2.243H22.627a.748.748,0,1,0,0,1.5h2.548a10.435,10.435,0,0,0,.776,3.548H22.627a.748.748,0,1,0,0,1.5h4.087a9.826,9.826,0,0,0,1.833,2.243h-5.92a.748.748,0,0,0,0,1.5h7.942c.014,0,.025-.007.038-.008a10.486,10.486,0,0,0,9.809.2l.578.764-.019.014a1.484,1.484,0,0,0-.291,2.078l.86,1.136Z" transform="translate(-3.11 -3)" fill="#fff"/>
          <path id="Path_13487" data-name="Path 13487" d="M44.671,26.448a7.773,7.773,0,1,0,7.155,8.347h.008A7.808,7.808,0,0,0,44.671,26.448Zm-3.31,10.421a.444.444,0,0,1-.444.444H39.4a.444.444,0,0,1-.444-.444V34.1a.444.444,0,0,1,.444-.444h1.518a.444.444,0,0,1,.444.444Zm3.948,0a.444.444,0,0,1-.444.444H43.346a.444.444,0,0,1-.444-.444V32.3a.444.444,0,0,1,.444-.444h1.518a.444.444,0,0,1,.444.444ZM49.1,36.9a.444.444,0,0,1-.444.444H47.138a.444.444,0,0,1-.444-.444V35.849a.444.444,0,0,1,.444-.444h1.518a.444.444,0,0,1,.444.444Z" transform="translate(-11.491 -8.915)" fill="#fff"/>
        </g>
      </g>
    </g>
    <g id="Group_97321" data-name="Group 97321">
      <g id="Group_23566" data-name="Group 23566" transform="translate(1413.508 1933.919) rotate(180)">
        <g id="Group_23562-2" data-name="Group 23562">
          <g id="Group_23558-2" data-name="Group 23558">
            <g id="Group_23561-2" data-name="Group 23561">
              <path id="Path_13435-2" data-name="Path 13435" d="M60.329,157.189a1.02,1.02,0,0,1-.243-.031l-.124-.034A81.48,81.48,0,0,1,24.229,20.589a1.054,1.054,0,1,1,1.479,1.5A79.347,79.347,0,0,0,60.376,155.051a1.177,1.177,0,0,1,.866,1.327.985.985,0,0,1-.913.812m77.756-20.453a1.054,1.054,0,0,1-.742-1.8A79.347,79.347,0,0,0,102.58,2.065l.151-1.051L103.023,0l-.292,1.013.362-.994A81.482,81.482,0,0,1,138.827,136.43a1.049,1.049,0,0,1-.742.306" transform="translate(11.571 20.892)" fill="#56b4e3"/>
              <path id="Path_13436-2" data-name="Path 13436" d="M85.256,133.565A1.054,1.054,0,0,1,85,131.487,66.712,66.712,0,0,0,116.8,20.445a1.14,1.14,0,0,1-.042-1.558.978.978,0,0,1,1.423-.048c0,.007.144.152.151.158A68.827,68.827,0,0,1,85.51,133.533a.993.993,0,0,1-.254.032M20.08,114.935a.981.981,0,0,1-.7-.29c-.011-.014-.09-.095-.1-.108A68.824,68.824,0,0,1,52.011.032a1.055,1.055,0,0,1,.513,2.047A66.71,66.71,0,0,0,20.82,113.1a1.1,1.1,0,0,1,.015,1.52,1.077,1.077,0,0,1-.755.319" transform="translate(24.243 32.679)" fill="#5c79bb"/>
              <g transform="matrix(-1, 0, 0, -1, 1161.51, 208.92)" filter="url(#Path_13437-2)">
                <path id="Path_13437-8" data-name="Path 13437" d="M110.7,55.352A55.352,55.352,0,1,1,55.352,0,55.352,55.352,0,0,1,110.7,55.352" transform="translate(1123.81 164.82) rotate(180)" fill="url(#linear-gradient)"/>
              </g>
              <path id="Path_13438-2" data-name="Path 13438" d="M57.111,114.22A57.11,57.11,0,1,1,114.22,57.108,57.177,57.177,0,0,1,57.111,114.22m0-110.7A53.594,53.594,0,1,0,110.7,57.108,53.654,53.654,0,0,0,57.111,3.515" transform="translate(35.94 42.34)" fill="#fff"/>
              <path id="Path_13439-2" data-name="Path 13439" d="M1.055,54.143A1.055,1.055,0,0,1,0,53.088V1.055a1.055,1.055,0,1,1,2.11,0V53.088a1.055,1.055,0,0,1-1.055,1.055" transform="translate(91.996 3.466)" fill="#57aadc"/>
              <path id="Path_13440-2" data-name="Path 13440" d="M9.517,4.758A4.758,4.758,0,1,0,4.759,9.517,4.758,4.758,0,0,0,9.517,4.758" transform="translate(88.291)" fill="#57aadc"/>
            </g>
          </g>
        </g>
      </g>
      <g id="Group_23581" data-name="Group 23581" transform="translate(16 -6)">
        <g id="social-media" transform="translate(1264.758 1817.387)">
          <path id="Path_13477" data-name="Path 13477" d="M57.348,0H55.189a.736.736,0,0,0,0,1.471h2.159A4.041,4.041,0,0,1,61.392,5.5V22.527a4.041,4.041,0,0,1-4.044,4.029H54.9a.736.736,0,0,0-.447.151l-4.493,3.437V27.293a.736.736,0,0,0-.736-.736H40.268A4.024,4.024,0,0,1,38.209,26V17.736a4.489,4.489,0,0,0-1.984-3.722V5.5a4.041,4.041,0,0,1,4.044-4.029h10.31a.736.736,0,0,0,0-1.471H40.268a5.514,5.514,0,0,0-5.515,5.5v7.867a4.511,4.511,0,0,0-1.049-.124H20.236a4.5,4.5,0,0,0-4.5,4.493v1.589a.736.736,0,0,0,1.471,0V17.736a3.031,3.031,0,0,1,3.033-3.022H33.7a3.031,3.031,0,0,1,3.033,3.022v8.552a.736.736,0,0,0,0,.195v4.68c0,.093-.006.185-.014.276H35.206a3.413,3.413,0,0,0-3.355,2.793.737.737,0,0,0-.191.106L28.37,36.879V34.921a.736.736,0,0,0-.736-.736h-7.4A3.031,3.031,0,0,1,17.2,31.163V23.739a.736.736,0,0,0-1.471,0v7.424a4.5,4.5,0,0,0,4.5,4.493H26.9v2.72a.747.747,0,0,0,1.185.582L31.8,36.094v8.277a3.41,3.41,0,0,0,3.411,3.4h4.515V49.49a.747.747,0,0,0,1.185.582l2.978-2.3h.88a3.41,3.41,0,0,0,3.411-3.4V43.064a.736.736,0,0,0-1.471,0v1.306A1.937,1.937,0,0,1,44.764,46.3H43.633a.736.736,0,0,0-.45.153l-1.991,1.537v-.955a.736.736,0,0,0-.736-.736H35.206a1.937,1.937,0,0,1-1.939-1.931V34.842a1.937,1.937,0,0,1,1.939-1.931h9.558A1.937,1.937,0,0,1,46.7,34.842v3.612a.736.736,0,0,0,1.471,0V34.842a3.41,3.41,0,0,0-3.411-3.4H38.2c.006-.092.008-3.808.008-3.808a5.507,5.507,0,0,0,2.06.4h8.219v3.606a.747.747,0,0,0,1.183.584l5.478-4.19h2.2a5.514,5.514,0,0,0,5.515-5.5V5.5A5.514,5.514,0,0,0,57.348,0Z" fill="#fff"/>
          <path id="Path_13478" data-name="Path 13478" d="M276.923,54.616a1.533,1.533,0,0,0-1.886,1.465,4.322,4.322,0,0,1-1.082,2.861l-2.027,2.294a.735.735,0,0,0-.616-.335h-3.957a.736.736,0,0,0-.736.736v8.9a.736.736,0,0,0,.736.736h3.957a.735.735,0,0,0,.669-.43,5.141,5.141,0,0,0,2.674.754h6.993a1.926,1.926,0,0,0,1.9-1.993c-.022-.472,0-6.81,0-6.951a1.9,1.9,0,0,0-1.9-1.9l-3.637-.011.151-.357a5.745,5.745,0,0,0-.3-5.055,1.5,1.5,0,0,0-.938-.715ZM270.576,69.8H268.09V62.373h2.486Zm11.072-7.58a.431.431,0,0,1,.431.431c0,.14,0,.52,0,1.035-.011,2.844-.018,5.538,0,5.985a.431.431,0,0,1-.43.453h-6.993a3.663,3.663,0,0,1-2.3-.813l-.31-.251V63.323l3.011-3.407a5.793,5.793,0,0,0,1.45-3.835.041.041,0,0,1,.076-.02,4.265,4.265,0,0,1,.225,3.753l-.581,1.375a.736.736,0,0,0,.676,1.022Z" transform="translate(-226.277 -49.18)" fill="#fff"/>
          <path id="Path_13479" data-name="Path 13479" d="M73.187,200.071a.736.736,0,1,0,0,1.471h2.169l-.405,2.45a.736.736,0,1,0,1.452.24l.445-2.69h1.775l-.405,2.45a.736.736,0,1,0,1.452.24l.445-2.69h2.952a.736.736,0,1,0,0-1.471H80.356l.3-1.795h2.412a.736.736,0,1,0,0-1.471H80.9l.405-2.45a.736.736,0,0,0-1.452-.24l-.445,2.69H77.63l.405-2.45a.736.736,0,1,0-1.452-.24l-.445,2.69H73.187a.736.736,0,1,0,0,1.471H75.9l-.3,1.795Zm4.2-1.795h1.775l-.3,1.795H77.09Z" transform="translate(-51.156 -174.517)" fill="#fff"/>
          <path id="Path_13480" data-name="Path 13480" d="M224.105,369.02a2.474,2.474,0,0,0-2.177-.489,2.737,2.737,0,0,0-2.041,2.762,3.612,3.612,0,0,0,1.087,2.586,10.794,10.794,0,0,0,2.8,1.928.736.736,0,0,0,.689,0c2.331-1.236,3.883-2.476,3.883-4.514a2.72,2.72,0,0,0-2.114-2.747A2.467,2.467,0,0,0,224.105,369.02Zm2.765,2.273c0,1.1-.729,1.912-2.756,3.028-2.027-1.116-2.756-1.929-2.756-3.028a1.258,1.258,0,0,1,.917-1.332,1.1,1.1,0,0,1,.259-.031,1.015,1.015,0,0,1,.926.592.736.736,0,0,0,1.32-.026.956.956,0,0,1,1.128-.514A1.244,1.244,0,0,1,226.87,371.292Z" transform="translate(-184.129 -332.312)" fill="#fff"/>
        </g>
        <path id="Path_13488" data-name="Path 13488" d="M1992.719,2214.987v8.918h4.406v-8.918Z" transform="translate(-687 -385)" fill="#fff"/>
        <path id="Path_13489" data-name="Path 13489" d="M1991.511,2245.188s-7.174-5.161-.441-5.751h2.986l1.568,2.158Z" transform="translate(-687 -385)" fill="#fff"/>
      </g>
    </g>
    <g id="Group_97322" data-name="Group 97322">
      <g id="Group_23565" data-name="Group 23565" transform="translate(1163.506 1933.919) rotate(180)">
        <g id="Group_23562-3" data-name="Group 23562">
          <g id="Group_23558-3" data-name="Group 23558">
            <g id="Group_23561-3" data-name="Group 23561">
              <path id="Path_13435-3" data-name="Path 13435" d="M60.329,157.189a1.02,1.02,0,0,1-.243-.031l-.124-.034A81.48,81.48,0,0,1,24.229,20.589a1.054,1.054,0,1,1,1.479,1.5A79.347,79.347,0,0,0,60.376,155.051a1.177,1.177,0,0,1,.866,1.327.985.985,0,0,1-.913.812m77.756-20.453a1.054,1.054,0,0,1-.742-1.8A79.347,79.347,0,0,0,102.58,2.065l.151-1.051L103.023,0l-.292,1.013.362-.994A81.482,81.482,0,0,1,138.827,136.43a1.049,1.049,0,0,1-.742.306" transform="translate(11.571 20.892)" fill="#56b4e3"/>
              <path id="Path_13436-3" data-name="Path 13436" d="M85.256,133.565A1.054,1.054,0,0,1,85,131.487,66.712,66.712,0,0,0,116.8,20.445a1.14,1.14,0,0,1-.042-1.558.978.978,0,0,1,1.423-.048c0,.007.144.152.151.158A68.827,68.827,0,0,1,85.51,133.533a.993.993,0,0,1-.254.032M20.08,114.935a.981.981,0,0,1-.7-.29c-.011-.014-.09-.095-.1-.108A68.824,68.824,0,0,1,52.011.032a1.055,1.055,0,0,1,.513,2.047A66.71,66.71,0,0,0,20.82,113.1a1.1,1.1,0,0,1,.015,1.52,1.077,1.077,0,0,1-.755.319" transform="translate(24.243 32.679)" fill="#5c79bb"/>
              <g transform="matrix(-1, 0, 0, -1, 911.51, 208.92)" filter="url(#Path_13437-3)">
                <path id="Path_13437-9" data-name="Path 13437" d="M110.7,55.352A55.352,55.352,0,1,1,55.352,0,55.352,55.352,0,0,1,110.7,55.352" transform="translate(873.81 164.82) rotate(180)" fill="url(#linear-gradient)"/>
              </g>
              <path id="Path_13438-3" data-name="Path 13438" d="M57.111,114.22A57.11,57.11,0,1,1,114.22,57.108,57.177,57.177,0,0,1,57.111,114.22m0-110.7A53.594,53.594,0,1,0,110.7,57.108,53.654,53.654,0,0,0,57.111,3.515" transform="translate(35.94 42.34)" fill="#fff"/>
              <path id="Path_13439-3" data-name="Path 13439" d="M1.055,54.143A1.055,1.055,0,0,1,0,53.088V1.055a1.055,1.055,0,1,1,2.11,0V53.088a1.055,1.055,0,0,1-1.055,1.055" transform="translate(91.996 3.466)" fill="#57aadc"/>
              <path id="Path_13440-3" data-name="Path 13440" d="M9.517,4.758A4.758,4.758,0,1,0,4.759,9.517,4.758,4.758,0,0,0,9.517,4.758" transform="translate(88.291)" fill="#57aadc"/>
            </g>
          </g>
        </g>
      </g>
      <g id="Group_23582" data-name="Group 23582" transform="translate(-3 -6)">
        <g id="puzzle" transform="translate(1046.289 1819.727)">
          <path id="Path_13469" data-name="Path 13469" d="M205.756,222.7,191.273,208.22l3.389-3.389a2.347,2.347,0,0,1,3.033-.232,4.739,4.739,0,1,0,4.44-4.439,2.347,2.347,0,0,1,.232-3.034l3.389-3.389,3.392,3.392a3.954,3.954,0,0,0,5.809-.283,3.235,3.235,0,0,1,1.851-3.811l-.6-1.458a4.75,4.75,0,0,0-2.921,4.67,2.335,2.335,0,0,1-3.027-.232l-4.506-4.506-4.5,4.5a3.965,3.965,0,0,0,.283,5.815A3.177,3.177,0,1,1,199.364,204a3.964,3.964,0,0,0-5.815-.283l-4.5,4.5,16.711,16.711,3.26-3.26-1.114-1.114Z" transform="translate(-169.185 -171.308)" fill="#fff"/>
          <path id="Path_13470" data-name="Path 13470" d="M0,0H1.555V1.576H0Z" transform="translate(39.874 48.083) rotate(-45)" fill="#fff"/>
          <path id="Path_13471" data-name="Path 13471" d="M407.045,199.626a2.314,2.314,0,0,1,.451-1.379,4.736,4.736,0,1,0,.369-9.463l.164,1.582a3.174,3.174,0,0,1,2.921,3.106,3.212,3.212,0,0,1-4.053,3.108,3.96,3.96,0,0,0-.284,5.809L410,205.781l-8.918,8.918,1.114,1.114,10.032-10.032-4.506-4.506A2.316,2.316,0,0,1,407.045,199.626Z" transform="translate(-358.95 -168.87)" fill="#fff"/>
          <path id="Path_13472" data-name="Path 13472" d="M17.274,23.723h6.36V17.361a2.346,2.346,0,0,1,1.987-2.315,4.739,4.739,0,1,0,0-6.279,2.346,2.346,0,0,1-1.987-2.315V.09H0V9.541H1.576V1.666H22.059V6.452a3.964,3.964,0,0,0,4.319,3.918,3.177,3.177,0,1,1,0,3.073,3.964,3.964,0,0,0-4.319,3.918v4.786H17.274a3.966,3.966,0,0,0-3.92,4.321,3.177,3.177,0,1,1-3.074,0,3.966,3.966,0,0,0-3.92-4.321H1.576V11.116H0V23.723H6.36a2.348,2.348,0,0,1,2.317,1.989,4.739,4.739,0,1,0,6.279,0,2.348,2.348,0,0,1,2.318-1.99Z" fill="#fff"/>
          <path id="Path_13473" data-name="Path 13473" d="M0,0H1.576V1.576H0Z" transform="translate(24.565 36.862) rotate(-45)" fill="#fff"/>
          <path id="Path_13474" data-name="Path 13474" d="M0,0H1.576V1.576H0Z" transform="translate(26.793 39.09) rotate(-45)" fill="#fff"/>
          <path id="Path_13475" data-name="Path 13475" d="M30.16,30.047h1.576v1.576H30.16Z" transform="translate(-26.991 -26.81)" fill="#fff"/>
          <path id="Path_13476" data-name="Path 13476" d="M30.16,60.047h1.576v1.576H30.16Z" transform="translate(-26.991 -53.658)" fill="#fff"/>
        </g>
        <path id="Path_13490" data-name="Path 13490" d="M1733.991,2227.3v-21.83h22.422v4.245s-1.443,3.974,2.767,4.645c0,0,2.72-3.723,6.921,0,0,0,1.916,5.925-4.419,6.37l-2.5-1.983s-4.287.737-2.767,4.347v4.207h-6.421s-3.5,1.539-2.416,3.694c0,0,4.426,4.511-2.521,7.216,0,0-6.74-2.831-2.315-7.216,0,0,1.009-3.863-4.014-3.694Z" transform="translate(-687 -385)" fill="#fff"/>
      </g>
    </g>
    <g id="Group_97325" data-name="Group 97325">
      <g id="Group_23560" data-name="Group 23560" transform="translate(435.506 1933.919) rotate(180)">
        <g id="Group_23562-4" data-name="Group 23562">
          <g id="Group_23558-4" data-name="Group 23558">
            <g id="Group_23561-4" data-name="Group 23561">
              <path id="Path_13435-4" data-name="Path 13435" d="M60.329,157.189a1.02,1.02,0,0,1-.243-.031l-.124-.034A81.48,81.48,0,0,1,24.229,20.589a1.054,1.054,0,1,1,1.479,1.5A79.347,79.347,0,0,0,60.376,155.051a1.177,1.177,0,0,1,.866,1.327.985.985,0,0,1-.913.812m77.756-20.453a1.054,1.054,0,0,1-.742-1.8A79.347,79.347,0,0,0,102.58,2.065l.151-1.051L103.023,0l-.292,1.013.362-.994A81.482,81.482,0,0,1,138.827,136.43a1.049,1.049,0,0,1-.742.306" transform="translate(11.571 20.892)" fill="#56b4e3"/>
              <path id="Path_13436-4" data-name="Path 13436" d="M85.256,133.565A1.054,1.054,0,0,1,85,131.487,66.712,66.712,0,0,0,116.8,20.445a1.14,1.14,0,0,1-.042-1.558.978.978,0,0,1,1.423-.048c0,.007.144.152.151.158A68.827,68.827,0,0,1,85.51,133.533a.993.993,0,0,1-.254.032M20.08,114.935a.981.981,0,0,1-.7-.29c-.011-.014-.09-.095-.1-.108A68.824,68.824,0,0,1,52.011.032a1.055,1.055,0,0,1,.513,2.047A66.71,66.71,0,0,0,20.82,113.1a1.1,1.1,0,0,1,.015,1.52,1.077,1.077,0,0,1-.755.319" transform="translate(24.243 32.679)" fill="#5c79bb"/>
              <g transform="matrix(-1, 0, 0, -1, 183.51, 208.92)" filter="url(#Path_13437-4)">
                <path id="Path_13437-10" data-name="Path 13437" d="M110.7,55.352A55.352,55.352,0,1,1,55.352,0,55.352,55.352,0,0,1,110.7,55.352" transform="translate(145.81 164.82) rotate(180)" fill="url(#linear-gradient)"/>
              </g>
              <path id="Path_13438-4" data-name="Path 13438" d="M57.111,114.22A57.11,57.11,0,1,1,114.22,57.108,57.177,57.177,0,0,1,57.111,114.22m0-110.7A53.594,53.594,0,1,0,110.7,57.108,53.654,53.654,0,0,0,57.111,3.515" transform="translate(35.94 42.34)" fill="#fff"/>
              <path id="Path_13439-4" data-name="Path 13439" d="M1.055,54.143A1.055,1.055,0,0,1,0,53.088V1.055a1.055,1.055,0,1,1,2.11,0V53.088a1.055,1.055,0,0,1-1.055,1.055" transform="translate(91.996 3.466)" fill="#57acdd"/>
              <path id="Path_13440-4" data-name="Path 13440" d="M9.517,4.758A4.758,4.758,0,1,0,4.759,9.517,4.758,4.758,0,0,0,9.517,4.758" transform="translate(88.291)" fill="#57aadc"/>
            </g>
          </g>
        </g>
      </g>
      <g id="Group_23585" data-name="Group 23585" transform="translate(-40 -6)">
        <g id="personal-data" transform="translate(359.282 1815.543)">
          <g id="Group_23368" data-name="Group 23368" transform="translate(0 1.172)">
            <path id="Path_13378" data-name="Path 13378" d="M96.823,270.855H86.333a.666.666,0,0,0,0,1.331H96.823a.666.666,0,1,0,0-1.331Z" transform="translate(-78.065 -246.923)" fill="#fff"/>
            <path id="Path_13379" data-name="Path 13379" d="M96.823,321.121H86.333a.666.666,0,1,0,0,1.331H96.823a.666.666,0,1,0,0-1.331Z" transform="translate(-78.065 -292.728)" fill="#fff"/>
            <path id="Path_13380" data-name="Path 13380" d="M97.489,372.052a.665.665,0,0,0-.666-.666H86.333a.666.666,0,0,0,0,1.331H96.823A.666.666,0,0,0,97.489,372.052Z" transform="translate(-78.065 -338.534)" fill="#fff"/>
            <path id="Path_13381" data-name="Path 13381" d="M86.333,421.652a.666.666,0,0,0,0,1.331h5.313a.666.666,0,0,0,0-1.331Z" transform="translate(-78.065 -384.338)" fill="#fff"/>
            <path id="Path_13382" data-name="Path 13382" d="M264.741,250.916a.63.63,0,0,1-.6-.436,9.865,9.865,0,0,0-.561-1.352.621.621,0,0,1,.12-.72,1.961,1.961,0,0,0,0-2.77l-1-1a1.962,1.962,0,0,0-2.771,0,.621.621,0,0,1-.72.12,9.859,9.859,0,0,0-1.353-.561.63.63,0,0,1-.436-.6,1.961,1.961,0,0,0-1.959-1.959h-1.415a1.961,1.961,0,0,0-1.959,1.959.63.63,0,0,1-.436.6,9.858,9.858,0,0,0-1.353.561.621.621,0,0,1-.72-.12,1.961,1.961,0,0,0-2.771,0l-1,1a1.961,1.961,0,0,0,0,2.771.621.621,0,0,1,.12.72,9.865,9.865,0,0,0-.561,1.353.63.63,0,0,1-.6.436,1.961,1.961,0,0,0-1.959,1.959v1.415a1.961,1.961,0,0,0,1.959,1.959.63.63,0,0,1,.6.436,9.865,9.865,0,0,0,.561,1.353.621.621,0,0,1-.12.72,1.958,1.958,0,0,0,0,2.77l1,1a1.961,1.961,0,0,0,2.771,0,.621.621,0,0,1,.72-.12,9.866,9.866,0,0,0,1.352.561.63.63,0,0,1,.436.6,1.961,1.961,0,0,0,1.959,1.959h1.415a1.961,1.961,0,0,0,1.959-1.959.63.63,0,0,1,.436-.6,9.871,9.871,0,0,0,1.353-.561.621.621,0,0,1,.72.12,1.961,1.961,0,0,0,2.771,0l1-1a1.958,1.958,0,0,0,0-2.771.621.621,0,0,1-.12-.72,9.86,9.86,0,0,0,.561-1.353.63.63,0,0,1,.6-.436,1.961,1.961,0,0,0,1.959-1.959v-1.415A1.961,1.961,0,0,0,264.741,250.916Zm.628,3.374a.629.629,0,0,1-.628.628,1.959,1.959,0,0,0-1.862,1.349,8.522,8.522,0,0,1-.485,1.169,1.95,1.95,0,0,0,.367,2.262.627.627,0,0,1,0,.888l-1,1a.627.627,0,0,1-.888,0,1.95,1.95,0,0,0-2.262-.366,8.534,8.534,0,0,1-1.169.485,1.959,1.959,0,0,0-1.349,1.862.629.629,0,0,1-.628.628h-1.415a.629.629,0,0,1-.628-.628,1.959,1.959,0,0,0-1.349-1.862,8.545,8.545,0,0,1-1.169-.485,1.948,1.948,0,0,0-2.262.366.628.628,0,0,1-.888,0l-1-1a.628.628,0,0,1,0-.888,1.95,1.95,0,0,0,.366-2.262,8.516,8.516,0,0,1-.485-1.169,1.959,1.959,0,0,0-1.862-1.35.629.629,0,0,1-.628-.628v-1.415a.629.629,0,0,1,.628-.628,1.959,1.959,0,0,0,1.862-1.35,8.508,8.508,0,0,1,.485-1.169,1.95,1.95,0,0,0-.367-2.262.629.629,0,0,1,0-.888l1-1a.629.629,0,0,1,.888,0,1.95,1.95,0,0,0,2.262.367,8.518,8.518,0,0,1,1.169-.485,1.959,1.959,0,0,0,1.349-1.862.629.629,0,0,1,.628-.628h1.415a.629.629,0,0,1,.628.628,1.959,1.959,0,0,0,1.349,1.862,8.508,8.508,0,0,1,1.169.485,1.95,1.95,0,0,0,2.262-.367.629.629,0,0,1,.888,0l1,1a.627.627,0,0,1,0,.888,1.95,1.95,0,0,0-.366,2.262,8.527,8.527,0,0,1,.485,1.169,1.959,1.959,0,0,0,1.862,1.349.629.629,0,0,1,.628.628Z" transform="translate(-221.265 -220.299)" fill="#fff"/>
            <path id="Path_13383" data-name="Path 13383" d="M216.455,105.467h-6.391a.666.666,0,1,0,0,1.331h6.391a1.586,1.586,0,0,0,1.585-1.585v-1.8a1.586,1.586,0,0,0-1.585-1.585H205.469a1.586,1.586,0,0,0-1.585,1.585v1.8a1.586,1.586,0,0,0,1.585,1.585h1.485a.666.666,0,0,0,0-1.331h-1.485a.254.254,0,0,1-.253-.254v-1.8a.254.254,0,0,1,.253-.253h10.987a.254.254,0,0,1,.253.253v1.8A.254.254,0,0,1,216.455,105.467Z" transform="translate(-185.791 -92.897)" fill="#fff"/>
            <path id="Path_13384" data-name="Path 13384" d="M28.87,45.068H6.367a1.243,1.243,0,0,1-1.242-1.242V15.886a2.086,2.086,0,0,1,.053-.468h6.5a2.576,2.576,0,0,0,2.573-2.573v-6.5a2.085,2.085,0,0,1,.468-.053h18.77a1.243,1.243,0,0,1,1.242,1.242V20.547a.666.666,0,1,0,1.331,0V7.539a2.576,2.576,0,0,0-2.573-2.573H32.263V3.745A2.576,2.576,0,0,0,29.69,1.172H2.573A2.576,2.576,0,0,0,0,3.745V40.033a2.576,2.576,0,0,0,2.573,2.573H3.794v1.222A2.576,2.576,0,0,0,6.367,46.4h22.5a.666.666,0,1,0,0-1.331ZM12.916,12.846a1.243,1.243,0,0,1-1.241,1.241H6.067l6.849-6.849Zm-9.121,3.04V41.274H2.573a1.243,1.243,0,0,1-1.241-1.242V3.745A1.243,1.243,0,0,1,2.573,2.5H29.69a1.243,1.243,0,0,1,1.241,1.242V4.966H14.714a3.379,3.379,0,0,0-2.405,1L4.791,13.481a3.378,3.378,0,0,0-1,2.405Z" transform="translate(0 -1.172)" fill="#fff"/>
            <path id="Path_13385" data-name="Path 13385" d="M304.281,295.988a7.121,7.121,0,1,0,7.121,7.121A7.129,7.129,0,0,0,304.281,295.988Zm0,12.911a5.772,5.772,0,0,1-4.145-1.753,4.922,4.922,0,0,1,2.722-2.061,3.042,3.042,0,0,0,2.846,0,4.922,4.922,0,0,1,2.722,2.061A5.771,5.771,0,0,1,304.281,308.9Zm-1.72-6.512a1.72,1.72,0,1,1,1.72,1.72A1.722,1.722,0,0,1,302.561,302.386Zm6.713,3.648a6.252,6.252,0,0,0-2.458-1.953,3.051,3.051,0,1,0-5.07,0,6.254,6.254,0,0,0-2.458,1.953,5.79,5.79,0,1,1,9.986,0Z" transform="translate(-270.79 -269.826)" fill="#fff"/>
          </g>
        </g>
        <path id="Path_13491" data-name="Path 13491" d="M1051.121,2215.366c.548.021,6.819,0,6.819,0s2.33-.834,2.154-2.521,0-6.4,0-6.4Z" transform="translate(-687 -385)" fill="#fff"/>
        <path id="Path_13492" data-name="Path 13492" d="M1074.987,2238.452c-.791.352,1.6,2.935,3.968,3.056s5.1-.936,5.672-2.073-1.442-1.775-1.442-1.775l-1.365-1.365a4.615,4.615,0,0,1-4.074,0A18.878,18.878,0,0,1,1074.987,2238.452Z" transform="translate(-687 -385)" fill="#fff"/>
        <rect id="Rectangle_8064" data-name="Rectangle 8064" width="13" height="4" rx="2" transform="translate(378 1826)" fill="#fff"/>
      </g>
    </g>
    <g id="Group_97323" data-name="Group 97323">
      <g id="Group_23563" data-name="Group 23563" transform="translate(677.531 1933.919) rotate(180)">
        <g id="Group_23562-5" data-name="Group 23562">
          <g id="Group_23558-5" data-name="Group 23558">
            <g id="Group_23561-5" data-name="Group 23561">
              <path id="Path_13435-5" data-name="Path 13435" d="M60.329,157.189a1.02,1.02,0,0,1-.243-.031l-.124-.034A81.48,81.48,0,0,1,24.229,20.589a1.054,1.054,0,1,1,1.479,1.5A79.347,79.347,0,0,0,60.376,155.051a1.177,1.177,0,0,1,.866,1.327.985.985,0,0,1-.913.812m77.756-20.453a1.054,1.054,0,0,1-.742-1.8A79.347,79.347,0,0,0,102.58,2.065l.151-1.051L103.023,0l-.292,1.013.362-.994A81.482,81.482,0,0,1,138.827,136.43a1.049,1.049,0,0,1-.742.306" transform="translate(11.571 20.892)" fill="#56b4e3"/>
              <path id="Path_13436-5" data-name="Path 13436" d="M85.256,133.565A1.054,1.054,0,0,1,85,131.487,66.712,66.712,0,0,0,116.8,20.445a1.14,1.14,0,0,1-.042-1.558.978.978,0,0,1,1.423-.048c0,.007.144.152.151.158A68.827,68.827,0,0,1,85.51,133.533a.993.993,0,0,1-.254.032M20.08,114.935a.981.981,0,0,1-.7-.29c-.011-.014-.09-.095-.1-.108A68.824,68.824,0,0,1,52.011.032a1.055,1.055,0,0,1,.513,2.047A66.71,66.71,0,0,0,20.82,113.1a1.1,1.1,0,0,1,.015,1.52,1.077,1.077,0,0,1-.755.319" transform="translate(24.243 32.679)" fill="#5c79bb"/>
              <g transform="matrix(-1, 0, 0, -1, 425.53, 208.92)" filter="url(#Path_13437-5)">
                <path id="Path_13437-11" data-name="Path 13437" d="M110.7,55.352A55.352,55.352,0,1,1,55.352,0,55.352,55.352,0,0,1,110.7,55.352" transform="translate(387.83 164.82) rotate(180)" fill="url(#linear-gradient)"/>
              </g>
              <path id="Path_13438-5" data-name="Path 13438" d="M57.111,114.22A57.11,57.11,0,1,1,114.22,57.108,57.177,57.177,0,0,1,57.111,114.22m0-110.7A53.594,53.594,0,1,0,110.7,57.108,53.654,53.654,0,0,0,57.111,3.515" transform="translate(35.94 42.34)" fill="#fff"/>
              <path id="Path_13439-5" data-name="Path 13439" d="M1.055,54.143A1.055,1.055,0,0,1,0,53.088V1.055a1.055,1.055,0,1,1,2.11,0V53.088a1.055,1.055,0,0,1-1.055,1.055" transform="translate(91.996 3.466)" fill="#57aadc"/>
              <path id="Path_13440-5" data-name="Path 13440" d="M9.517,4.758A4.758,4.758,0,1,0,4.759,9.517,4.758,4.758,0,0,0,9.517,4.758" transform="translate(88.291)" fill="#57aadc"/>
            </g>
          </g>
        </g>
      </g>
      <g id="Group_23584" data-name="Group 23584" transform="translate(-27.977 -6)">
        <g id="process" transform="translate(584.198 1811.404)">
          <g id="Group_23579" data-name="Group 23579" transform="translate(0 1.255)">
            <path id="Path_13441" data-name="Path 13441" d="M403.271,109.223v.158a.785.785,0,0,0,1.57,0v-.158a2.358,2.358,0,0,0-.553-1.516.785.785,0,1,0-1.2,1.011A.777.777,0,0,1,403.271,109.223Z" transform="translate(-360.72 -96.311)" fill="#fff"/>
            <path id="Path_13442" data-name="Path 13442" d="M407.205,180.589a.785.785,0,0,0-.785.785v1.256a.785.785,0,0,0,1.57,0v-1.256A.785.785,0,0,0,407.205,180.589Z" transform="translate(-363.87 -161.814)" fill="#fff"/>
            <path id="Path_13443" data-name="Path 13443" d="M407.99,144.374a.785.785,0,0,0-1.57,0v1.256a.785.785,0,1,0,1.57,0Z" transform="translate(-363.87 -128.687)" fill="#fff"/>
            <path id="Path_13444" data-name="Path 13444" d="M274.542,463.395h-1.256a.785.785,0,0,0,0,1.57h1.256a.785.785,0,1,0,0-1.57Z" transform="translate(-243.971 -415.011)" fill="#fff"/>
            <path id="Path_13445" data-name="Path 13445" d="M237.542,463.395h-1.256a.785.785,0,1,0,0,1.57h1.256a.785.785,0,1,0,0-1.57Z" transform="translate(-210.844 -415.011)" fill="#fff"/>
            <path id="Path_13446" data-name="Path 13446" d="M200.542,463.395h-1.256a.785.785,0,0,0,0,1.57h1.256a.785.785,0,1,0,0-1.57Z" transform="translate(-177.718 -415.011)" fill="#fff"/>
            <path id="Path_13447" data-name="Path 13447" d="M163.542,463.395h-1.256a.785.785,0,0,0,0,1.57h1.256a.785.785,0,1,0,0-1.57Z" transform="translate(-144.592 -415.011)" fill="#fff"/>
            <path id="Path_13448" data-name="Path 13448" d="M130.486,454.742a.791.791,0,0,1-.425-.44.785.785,0,0,0-1.465.566,2.37,2.37,0,0,0,1.274,1.318.785.785,0,1,0,.616-1.445Z" transform="translate(-115.085 -406.421)" fill="#fff"/>
            <path id="Path_13449" data-name="Path 13449" d="M128.325,419.754a.785.785,0,0,0,.785-.785v-1.256a.785.785,0,1,0-1.57,0v1.256A.785.785,0,0,0,128.325,419.754Z" transform="translate(-114.187 -373.408)" fill="#fff"/>
            <path id="Path_13450" data-name="Path 13450" d="M69.374,172.244H58.484a.785.785,0,0,0,0,1.57h10.89a.785.785,0,1,0,0-1.57Z" transform="translate(-51.658 -154.342)" fill="#fff"/>
            <path id="Path_13451" data-name="Path 13451" d="M69.374,208.582H58.484a.785.785,0,1,0,0,1.57h10.89a.785.785,0,1,0,0-1.57Z" transform="translate(-51.658 -186.876)" fill="#fff"/>
            <path id="Path_13452" data-name="Path 13452" d="M69.374,244.756H58.484a.785.785,0,1,0,0,1.57h10.89a.785.785,0,1,0,0-1.57Z" transform="translate(-51.658 -219.263)" fill="#fff"/>
            <path id="Path_13453" data-name="Path 13453" d="M70.16,282.041a.785.785,0,0,0-.785-.785H58.484a.785.785,0,0,0,0,1.57h10.89A.785.785,0,0,0,70.16,282.041Z" transform="translate(-51.658 -251.941)" fill="#fff"/>
            <path id="Path_13454" data-name="Path 13454" d="M58.484,317.593a.785.785,0,0,0,0,1.57h4.882a.785.785,0,0,0,0-1.57Z" transform="translate(-51.658 -284.474)" fill="#fff"/>
            <path id="Path_13455" data-name="Path 13455" d="M195.3,357.176a.785.785,0,0,0,1.11,0l3.17-3.17a.785.785,0,0,0-1.11-1.11l-2.614,2.614-1.833-1.833a.785.785,0,1,0-1.11,1.11Z" transform="translate(-172.507 -315.875)" fill="#fff"/>
            <path id="Path_13456" data-name="Path 13456" d="M35.283,21.638a11.474,11.474,0,0,0,1.961-1.961,1.387,1.387,0,0,0-.115-1.834L35.7,16.412a8.324,8.324,0,0,0,.478-1.154H38.2a1.387,1.387,0,0,0,1.378-1.215c.027-.219.047-.44.061-.661h.878a.785.785,0,0,0,0-1.57H39.63c-.013-.181-.03-.362-.052-.542A1.387,1.387,0,0,0,38.2,10.053H36.176A8.32,8.32,0,0,0,35.7,8.9l1.431-1.431a1.387,1.387,0,0,0,.115-1.834,11.481,11.481,0,0,0-1.961-1.961,1.387,1.387,0,0,0-1.834.115L32.018,5.219a8.307,8.307,0,0,0-1.154-.478V2.716a1.387,1.387,0,0,0-1.215-1.378,11.531,11.531,0,0,0-2.774,0A1.387,1.387,0,0,0,25.66,2.716V4.741a8.307,8.307,0,0,0-1.154.478L23.074,3.788a1.387,1.387,0,0,0-1.834-.115,11.469,11.469,0,0,0-1.961,1.961,1.387,1.387,0,0,0,.115,1.834L20.825,8.9a8.325,8.325,0,0,0-.478,1.154H18.322a1.387,1.387,0,0,0-1.378,1.215c-.022.18-.038.361-.052.542H5.882a1.82,1.82,0,0,0-1.3.537L.537,16.4A1.82,1.82,0,0,0,0,17.692V40.32a1.834,1.834,0,0,0,1.832,1.832H13.353v.789a.785.785,0,1,0,1.57,0v-.789h2.144a6.933,6.933,0,1,0,7.475-8.776V29.81a.785.785,0,1,0-1.57,0v3.561A6.943,6.943,0,0,0,16.8,40.262c0,.107,0,.214.008.32H1.832a.262.262,0,0,1-.262-.262V17.692a.264.264,0,0,1,.077-.185L5.7,13.458a.26.26,0,0,1,.185-.077h11c.014.221.034.442.061.661a1.387,1.387,0,0,0,1.378,1.215h2.025a8.307,8.307,0,0,0,.478,1.154l-1.431,1.431a1.387,1.387,0,0,0-.115,1.834,11.477,11.477,0,0,0,1.961,1.961,1.387,1.387,0,0,0,1.732-.023v4.53a.785.785,0,1,0,1.57,0V20.11a8.306,8.306,0,0,0,1.117.46v2.025a1.387,1.387,0,0,0,1.215,1.378,11.487,11.487,0,0,0,2.774,0,1.387,1.387,0,0,0,1.215-1.378V20.569a8.319,8.319,0,0,0,1.154-.478l1.431,1.431a1.388,1.388,0,0,0,1.834.115ZM23.737,34.9a5.364,5.364,0,1,1-5.364,5.364A5.37,5.37,0,0,1,23.737,34.9ZM31.4,18.642a6.731,6.731,0,0,1-1.128.467,1.384,1.384,0,0,0-.981,1.326v2a9.95,9.95,0,0,1-2.063,0v-2a1.385,1.385,0,0,0-.981-1.326,6.721,6.721,0,0,1-1.128-.467,1.385,1.385,0,0,0-1.631.244L22.078,20.3a9.909,9.909,0,0,1-1.459-1.459l1.411-1.411a1.385,1.385,0,0,0,.244-1.631,6.732,6.732,0,0,1-.467-1.128,1.385,1.385,0,0,0-1.326-.981h-2a9.916,9.916,0,0,1,0-2.063h2a1.385,1.385,0,0,0,1.326-.981,6.74,6.74,0,0,1,.467-1.128,1.385,1.385,0,0,0-.244-1.631L20.619,6.472a9.9,9.9,0,0,1,1.459-1.459l1.411,1.411a1.385,1.385,0,0,0,1.631.244A6.739,6.739,0,0,1,26.249,6.2a1.385,1.385,0,0,0,.981-1.326v-2a9.95,9.95,0,0,1,2.063,0v2A1.385,1.385,0,0,0,30.274,6.2a6.729,6.729,0,0,1,1.128.467,1.385,1.385,0,0,0,1.631-.244l1.411-1.411A9.9,9.9,0,0,1,35.9,6.472L34.493,7.883h0a1.385,1.385,0,0,0-.244,1.631,6.725,6.725,0,0,1,.467,1.128,1.384,1.384,0,0,0,1.326.981h2a9.9,9.9,0,0,1,0,2.063h-2a1.384,1.384,0,0,0-1.326.981,6.748,6.748,0,0,1-.467,1.128,1.385,1.385,0,0,0,.244,1.631L35.9,18.839A9.909,9.909,0,0,1,34.445,20.3l-1.411-1.411a1.385,1.385,0,0,0-1.631-.244Z" transform="translate(0 -1.255)" fill="#fff"/>
            <path id="Path_13457" data-name="Path 13457" d="M226.555,60.085a.785.785,0,0,0-.4,1.036,3.973,3.973,0,1,1-2.222-2.106.785.785,0,0,0,.558-1.468,5.546,5.546,0,1,0,3.1,2.937.785.785,0,0,0-1.036-.4Z" transform="translate(-194.261 -51.329)" fill="#fff"/>
            <path id="Path_13458" data-name="Path 13458" d="M249.093,86.864A2.438,2.438,0,1,0,251.53,89.3,2.44,2.44,0,0,0,249.093,86.864Zm0,3.305a.867.867,0,1,1,.867-.867.868.868,0,0,1-.867.867Z" transform="translate(-220.831 -77.901)" fill="#fff"/>
            <path id="Path_13459" data-name="Path 13459" d="M329.392,228.443a1.31,1.31,0,0,0,1.309-1.309v-5.727a1.31,1.31,0,0,0-1.309-1.309h-8.331a.78.78,0,0,0,.156-.469v-1.256a.785.785,0,1,0-1.57,0v1.256a.78.78,0,0,0,.156.469h-8.331a1.31,1.31,0,0,0-1.309,1.309v5.727a1.31,1.31,0,0,0,1.309,1.309h8.175v1.575h-8.175a1.31,1.31,0,0,0-1.309,1.309v5.727a1.31,1.31,0,0,0,1.309,1.309h8.175v1.575h-8.175a1.31,1.31,0,0,0-1.309,1.309v2.089a.784.784,0,0,0,0,1.55v2.089a1.31,1.31,0,0,0,1.309,1.309h17.92a1.31,1.31,0,0,0,1.309-1.309v-5.727a1.31,1.31,0,0,0-1.309-1.309h-8.175v-1.575h2.05a.785.785,0,1,0,0-1.57H311.734v-5.2h17.4v5.2h-2.2a.785.785,0,0,0,0,1.57h2.46a1.31,1.31,0,0,0,1.309-1.309v-5.727a1.31,1.31,0,0,0-1.309-1.309h-8.175v-1.575Zm-.262,13.064v5.2h-17.4v-5.2Zm-17.4-14.634v-5.2h17.4v5.2Z" transform="translate(-277.097 -194.94)" fill="#fff"/>
            <path id="Path_13460" data-name="Path 13460" d="M363.726,273.916H352.21a.785.785,0,0,0,0,1.57h11.515a.785.785,0,1,0,0-1.57Z" transform="translate(-314.632 -245.37)" fill="#fff"/>
            <path id="Path_13461" data-name="Path 13461" d="M364.511,369.441a.785.785,0,0,0-.785-.785H352.21a.785.785,0,1,0,0,1.57h11.515A.785.785,0,0,0,364.511,369.441Z" transform="translate(-314.632 -330.191)" fill="#fff"/>
            <path id="Path_13462" data-name="Path 13462" d="M352.21,464.965h11.515a.785.785,0,0,0,0-1.57H352.21a.785.785,0,0,0,0,1.57Z" transform="translate(-314.632 -415.011)" fill="#fff"/>
          </g>
        </g>
        <circle id="Ellipse_18" data-name="Ellipse 18" cx="1.5" cy="1.5" r="1.5" transform="translate(611 1822)" fill="#fff"/>
        <rect id="Rectangle_8063" data-name="Rectangle 8063" width="19" height="7" transform="translate(618 1848)" fill="#fff"/>
      </g>
    </g>
    <g id="Group_97324" data-name="Group 97324">
      <g id="Group_23564" data-name="Group 23564" transform="translate(913.508 1933.919) rotate(180)">
        <g id="Group_23562-6" data-name="Group 23562">
          <g id="Group_23558-6" data-name="Group 23558">
            <g id="Group_23561-6" data-name="Group 23561">
              <path id="Path_13435-6" data-name="Path 13435" d="M60.329,157.189a1.02,1.02,0,0,1-.243-.031l-.124-.034A81.48,81.48,0,0,1,24.229,20.589a1.054,1.054,0,1,1,1.479,1.5A79.347,79.347,0,0,0,60.376,155.051a1.177,1.177,0,0,1,.866,1.327.985.985,0,0,1-.913.812m77.756-20.453a1.054,1.054,0,0,1-.742-1.8A79.347,79.347,0,0,0,102.58,2.065l.151-1.051L103.023,0l-.292,1.013.362-.994A81.482,81.482,0,0,1,138.827,136.43a1.049,1.049,0,0,1-.742.306" transform="translate(11.571 20.892)" fill="#56b4e3"/>
              <path id="Path_13436-6" data-name="Path 13436" d="M85.256,133.565A1.054,1.054,0,0,1,85,131.487,66.712,66.712,0,0,0,116.8,20.445a1.14,1.14,0,0,1-.042-1.558.978.978,0,0,1,1.423-.048c0,.007.144.152.151.158A68.827,68.827,0,0,1,85.51,133.533a.993.993,0,0,1-.254.032M20.08,114.935a.981.981,0,0,1-.7-.29c-.011-.014-.09-.095-.1-.108A68.824,68.824,0,0,1,52.011.032a1.055,1.055,0,0,1,.513,2.047A66.71,66.71,0,0,0,20.82,113.1a1.1,1.1,0,0,1,.015,1.52,1.077,1.077,0,0,1-.755.319" transform="translate(24.243 32.679)" fill="#5c79bb"/>
              <g transform="matrix(-1, 0, 0, -1, 661.51, 208.92)" filter="url(#Path_13437-6)">
                <path id="Path_13437-12" data-name="Path 13437" d="M110.7,55.352A55.352,55.352,0,1,1,55.352,0,55.352,55.352,0,0,1,110.7,55.352" transform="translate(623.81 164.82) rotate(180)" fill="url(#linear-gradient)"/>
              </g>
              <path id="Path_13438-6" data-name="Path 13438" d="M57.111,114.22A57.11,57.11,0,1,1,114.22,57.108,57.177,57.177,0,0,1,57.111,114.22m0-110.7A53.594,53.594,0,1,0,110.7,57.108,53.654,53.654,0,0,0,57.111,3.515" transform="translate(35.94 42.34)" fill="#fff"/>
              <path id="Path_13439-6" data-name="Path 13439" d="M1.055,54.143A1.055,1.055,0,0,1,0,53.088V1.055a1.055,1.055,0,1,1,2.11,0V53.088a1.055,1.055,0,0,1-1.055,1.055" transform="translate(91.996 3.466)" fill="#57aadc"/>
              <path id="Path_13440-6" data-name="Path 13440" d="M9.517,4.758A4.758,4.758,0,1,0,4.759,9.517,4.758,4.758,0,0,0,9.517,4.758" transform="translate(88.291)" fill="#57aadc"/>
            </g>
          </g>
        </g>
      </g>
      <g id="Group_23583" data-name="Group 23583" transform="translate(-23 -6)">
        <g id="thumb-up" transform="translate(781.667 1810.951)">
          <path id="Path_13463" data-name="Path 13463" d="M82.975,144.245a3.686,3.686,0,0,0-1.213-2.735,3.69,3.69,0,0,0-2.476-6.426H67.6c1.049-2.854,2.268-7.654.179-10.835a9.978,9.978,0,0,0-2.725-2.826,2.325,2.325,0,0,0-2.184-.572c-.872.359-1.134,1.4-1.265,2.269l-.007.048a31.773,31.773,0,0,1-1.848,7.414c-1.286,3.03-2.97,4.5-5.148,4.5h-2a3.222,3.222,0,0,0-3.179-2.716h-4.2A3.219,3.219,0,0,0,42,135.583v5.05a.957.957,0,0,0,1.915,0v-5.05a1.3,1.3,0,0,1,1.3-1.3h4.2a1.3,1.3,0,0,1,1.3,1.3v18.7a1.3,1.3,0,0,1-1.3,1.3h-4.2a1.3,1.3,0,0,1-1.3-1.3v-5.05a.957.957,0,0,0-1.915,0v5.05a3.219,3.219,0,0,0,3.215,3.215h4.2a3.222,3.222,0,0,0,3.179-2.716s2.918,0,3.124.015l.039.068a8.063,8.063,0,0,0,.614.95c1.1,1.472,3.777,2.384,5.623,2.384H77.18a3.351,3.351,0,0,0,2.974-4.894,3.69,3.69,0,0,0,1.608-6.321,3.686,3.686,0,0,0,1.213-2.735ZM68.486,156.281H62a6.088,6.088,0,0,1-4.091-1.617,6.185,6.185,0,0,1-.479-.743c-.6-1.057-1.087-1.059-2.7-1.057H52.635V137H54.6c2.988,0,5.313-1.908,6.91-5.67a33.437,33.437,0,0,0,1.979-7.875l.007-.049a4.421,4.421,0,0,1,.136-.638c.072.045.164.107.279.192a8.088,8.088,0,0,1,2.266,2.34c1.8,2.738.225,7.586-.534,9.543a1.67,1.67,0,0,0,.051,1.557,1.619,1.619,0,0,0,1.392.6h1.155a3.685,3.685,0,0,0,.777,4.529,3.689,3.689,0,0,0,.02,5.452,3.686,3.686,0,0,0,.073,5.531,3.346,3.346,0,0,0-.622,3.77Zm8.694,0H71.512a1.437,1.437,0,0,1,0-2.875H77.18a1.437,1.437,0,0,1,0,2.875Zm2.105-4.79H71.512a1.777,1.777,0,0,1,0-3.553h7.773a1.777,1.777,0,0,1,0,3.553Zm0-5.468H71.512a1.778,1.778,0,0,1,0-3.556h7.773a1.778,1.778,0,0,1,0,3.556Zm0-5.471H71.471a1.777,1.777,0,0,1,0-3.553h7.814a1.777,1.777,0,0,1,0,3.553Z" transform="translate(0 -109.179)" fill="#fff"/>
          <path id="Path_13464" data-name="Path 13464" d="M191.581,307.9a.957.957,0,0,0-.818,1.079,4.93,4.93,0,0,1-.825,3.748,6.646,6.646,0,0,1-4.634,2.207.957.957,0,1,0,.246,1.9,8.449,8.449,0,0,0,5.909-2.942,6.8,6.8,0,0,0,1.2-5.171A.957.957,0,0,0,191.581,307.9Z" transform="translate(-128.831 -278.416)" fill="#fff"/>
          <path id="Path_13465" data-name="Path 13465" d="M263.338,7.3a.957.957,0,0,0,.957-.957V.957a.957.957,0,1,0-1.915,0V6.344A.957.957,0,0,0,263.338,7.3Z" transform="translate(-199.283)" fill="#fff"/>
          <path id="Path_13466" data-name="Path 13466" d="M340.576,39.079a.957.957,0,0,0,1.327-.268l2.968-4.472a.957.957,0,0,0-1.6-1.059l-2.968,4.472A.957.957,0,0,0,340.576,39.079Z" transform="translate(-269.605 -29.707)" fill="#fff"/>
          <path id="Path_13467" data-name="Path 13467" d="M156.709,38.811a.957.957,0,1,0,1.595-1.059l-2.971-4.472a.957.957,0,0,0-1.595,1.06Z" transform="translate(-100.896 -29.707)" fill="#fff"/>
          <path id="Path_13468" data-name="Path 13468" d="M42.957,365.368a.959.959,0,1,0-.957-.96v.005A.955.955,0,0,0,42.957,365.368Z" transform="translate(0 -328.656)" fill="#fff"/>
        </g>
        <rect id="Rectangle_8062" data-name="Rectangle 8062" width="10" height="25" rx="4" transform="translate(823 1834)" fill="#fff"/>
      </g>
    </g>
  </g>
</svg>
