<svg xmlns="http://www.w3.org/2000/svg" width="25.88" height="19.41" viewBox="0 0 25.88 19.41">
  <path id="Hide" d="M16.153,25.923l1.47-1.47a4.835,4.835,0,0,1-5.935,5.935l1.47-1.47a3.221,3.221,0,0,0,2.995-2.995Zm9.625-.611a16.938,16.938,0,0,0-4.268-4.746l-1.177,1.177a16.186,16.186,0,0,1,3.787,3.963c-.959,1.46-4.719,6.469-11.18,6.469a11.884,11.884,0,0,1-2.718-.322L8.893,33.182a13.7,13.7,0,0,0,4.047.61c8.466,0,12.664-7.381,12.838-7.695a.808.808,0,0,0,0-.786Zm-3.37-7.932L4.616,35.173a.809.809,0,0,1-1.144-1.144l2.264-2.264A16.97,16.97,0,0,1,.1,26.1a.809.809,0,0,1,0-.786C.276,25,4.474,17.617,12.94,17.617a13.619,13.619,0,0,1,5.706,1.238l2.618-2.618a.809.809,0,0,1,1.144,1.144ZM6.942,30.559l2.048-2.048a4.845,4.845,0,0,1,6.758-6.758L17.4,20.1a11.908,11.908,0,0,0-4.463-.863c-6.461,0-10.221,5.009-11.179,6.469a15.879,15.879,0,0,0,5.181,4.856Zm3.222-3.222,4.409-4.409a3.2,3.2,0,0,0-1.633-.458A3.239,3.239,0,0,0,9.7,25.7a3.2,3.2,0,0,0,.458,1.633Z" transform="translate(0 -16)" fill="#bcc6cf"/>
</svg>
