<svg xmlns="http://www.w3.org/2000/svg" width="23.892" height="21.233" viewBox="0 0 23.892 21.233">
  <path id="Icon_awesome-edit" data-name="Icon awesome-edit" d="M16.7,3.454,20.441,7.2a.406.406,0,0,1,0,.572l-9.059,9.059-3.849.427a.807.807,0,0,1-.892-.892l.427-3.849,9.059-9.059A.406.406,0,0,1,16.7,3.454Zm6.72-.95L21.395.48a1.622,1.622,0,0,0-2.29,0L17.637,1.948a.406.406,0,0,0,0,.572l3.741,3.741a.406.406,0,0,0,.572,0l1.468-1.468a1.622,1.622,0,0,0,0-2.29ZM15.928,14.363v4.223H2.655V5.312h9.532a.51.51,0,0,0,.353-.145L14.2,3.508a.5.5,0,0,0-.353-.85H1.991A1.992,1.992,0,0,0,0,4.649v14.6A1.992,1.992,0,0,0,1.991,21.24h14.6a1.992,1.992,0,0,0,1.991-1.991V12.7a.5.5,0,0,0-.85-.353L16.073,14.01A.51.51,0,0,0,15.928,14.363Z" transform="translate(0 -0.007)" fill="#01cc30"/>
</svg>
