<svg xmlns="http://www.w3.org/2000/svg" width="24.786" height="24.786" viewBox="0 0 24.786 24.786">
  <g id="Icons" transform="translate(60)">
    <g id="Social-Media-Collection">
      <g id="Linkedin">
        <path id="Fill-209" d="M18.589,18.578H16.022V14.559c0-.958-.017-2.19-1.335-2.19-1.336,0-1.54,1.044-1.54,2.122v4.087H10.582V10.315h2.462v1.13h.036a2.7,2.7,0,0,1,2.43-1.335c2.6,0,3.08,1.711,3.08,3.936ZM7.687,9.186A1.489,1.489,0,1,1,9.175,7.7,1.489,1.489,0,0,1,7.687,9.186Zm1.284,9.391H6.4V10.315H8.971ZM12.393,0A12.393,12.393,0,1,0,24.786,12.393,12.392,12.392,0,0,0,12.393,0Z" transform="translate(-60)" fill="#2e78b6" fill-rule="evenodd"/>
      </g>
    </g>
  </g>
</svg>
