<svg xmlns="http://www.w3.org/2000/svg" width="47.132" height="50.218" viewBox="0 0 47.132 50.218">
  <g id="Group_23581" data-name="Group 23581" transform="translate(-1280.489 -1817.387)">
    <g id="social-media" transform="translate(1264.758 1817.387)">
      <path id="Path_13477" data-name="Path 13477" d="M57.348,0H55.189a.736.736,0,0,0,0,1.471h2.159A4.041,4.041,0,0,1,61.392,5.5V22.527a4.041,4.041,0,0,1-4.044,4.029H54.9a.736.736,0,0,0-.447.151l-4.493,3.437V27.293a.736.736,0,0,0-.736-.736H40.268A4.024,4.024,0,0,1,38.209,26V17.736a4.489,4.489,0,0,0-1.984-3.722V5.5a4.041,4.041,0,0,1,4.044-4.029h10.31a.736.736,0,0,0,0-1.471H40.268a5.514,5.514,0,0,0-5.515,5.5v7.867a4.511,4.511,0,0,0-1.049-.124H20.236a4.5,4.5,0,0,0-4.5,4.493v1.589a.736.736,0,0,0,1.471,0V17.736a3.031,3.031,0,0,1,3.033-3.022H33.7a3.031,3.031,0,0,1,3.033,3.022v8.552a.736.736,0,0,0,0,.195v4.68c0,.093-.006.185-.014.276H35.206a3.413,3.413,0,0,0-3.355,2.793.737.737,0,0,0-.191.106L28.37,36.879V34.921a.736.736,0,0,0-.736-.736h-7.4A3.031,3.031,0,0,1,17.2,31.163V23.739a.736.736,0,0,0-1.471,0v7.424a4.5,4.5,0,0,0,4.5,4.493H26.9v2.72a.747.747,0,0,0,1.185.582L31.8,36.094v8.277a3.41,3.41,0,0,0,3.411,3.4h4.515V49.49a.747.747,0,0,0,1.185.582l2.978-2.3h.88a3.41,3.41,0,0,0,3.411-3.4V43.064a.736.736,0,0,0-1.471,0v1.306A1.937,1.937,0,0,1,44.764,46.3H43.633a.736.736,0,0,0-.45.153l-1.991,1.537v-.955a.736.736,0,0,0-.736-.736H35.206a1.937,1.937,0,0,1-1.939-1.931V34.842a1.937,1.937,0,0,1,1.939-1.931h9.558A1.937,1.937,0,0,1,46.7,34.842v3.612a.736.736,0,0,0,1.471,0V34.842a3.41,3.41,0,0,0-3.411-3.4H38.2c.006-.092.008-3.808.008-3.808a5.507,5.507,0,0,0,2.06.4h8.219v3.606a.747.747,0,0,0,1.183.584l5.478-4.19h2.2a5.514,5.514,0,0,0,5.515-5.5V5.5A5.514,5.514,0,0,0,57.348,0Z" fill="#fff"/>
      <path id="Path_13478" data-name="Path 13478" d="M276.923,54.616a1.533,1.533,0,0,0-1.886,1.465,4.322,4.322,0,0,1-1.082,2.861l-2.027,2.294a.735.735,0,0,0-.616-.335h-3.957a.736.736,0,0,0-.736.736v8.9a.736.736,0,0,0,.736.736h3.957a.735.735,0,0,0,.669-.43,5.141,5.141,0,0,0,2.674.754h6.993a1.926,1.926,0,0,0,1.9-1.993c-.022-.472,0-6.81,0-6.951a1.9,1.9,0,0,0-1.9-1.9l-3.637-.011.151-.357a5.745,5.745,0,0,0-.3-5.055,1.5,1.5,0,0,0-.938-.715ZM270.576,69.8H268.09V62.373h2.486Zm11.072-7.58a.431.431,0,0,1,.431.431c0,.14,0,.52,0,1.035-.011,2.844-.018,5.538,0,5.985a.431.431,0,0,1-.43.453h-6.993a3.663,3.663,0,0,1-2.3-.813l-.31-.251V63.323l3.011-3.407a5.793,5.793,0,0,0,1.45-3.835.041.041,0,0,1,.076-.02,4.265,4.265,0,0,1,.225,3.753l-.581,1.375a.736.736,0,0,0,.676,1.022Z" transform="translate(-226.277 -49.18)" fill="#fff"/>
      <path id="Path_13479" data-name="Path 13479" d="M73.187,200.071a.736.736,0,1,0,0,1.471h2.169l-.405,2.45a.736.736,0,1,0,1.452.24l.445-2.69h1.775l-.405,2.45a.736.736,0,1,0,1.452.24l.445-2.69h2.952a.736.736,0,1,0,0-1.471H80.356l.3-1.795h2.412a.736.736,0,1,0,0-1.471H80.9l.405-2.45a.736.736,0,0,0-1.452-.24l-.445,2.69H77.63l.405-2.45a.736.736,0,1,0-1.452-.24l-.445,2.69H73.187a.736.736,0,1,0,0,1.471H75.9l-.3,1.795Zm4.2-1.795h1.775l-.3,1.795H77.09Z" transform="translate(-51.156 -174.517)" fill="#fff"/>
      <path id="Path_13480" data-name="Path 13480" d="M224.105,369.02a2.474,2.474,0,0,0-2.177-.489,2.737,2.737,0,0,0-2.041,2.762,3.612,3.612,0,0,0,1.087,2.586,10.794,10.794,0,0,0,2.8,1.928.736.736,0,0,0,.689,0c2.331-1.236,3.883-2.476,3.883-4.514a2.72,2.72,0,0,0-2.114-2.747A2.467,2.467,0,0,0,224.105,369.02Zm2.765,2.273c0,1.1-.729,1.912-2.756,3.028-2.027-1.116-2.756-1.929-2.756-3.028a1.258,1.258,0,0,1,.917-1.332,1.1,1.1,0,0,1,.259-.031,1.015,1.015,0,0,1,.926.592.736.736,0,0,0,1.32-.026.956.956,0,0,1,1.128-.514A1.244,1.244,0,0,1,226.87,371.292Z" transform="translate(-184.129 -332.312)" fill="#fff"/>
    </g>
    <path id="Path_13488" data-name="Path 13488" d="M1992.719,2214.987v8.918h4.406v-8.918Z" transform="translate(-687 -385)" fill="#fff"/>
    <path id="Path_13489" data-name="Path 13489" d="M1991.511,2245.188s-7.174-5.161-.441-5.751h2.986l1.568,2.158Z" transform="translate(-687 -385)" fill="#fff"/>
  </g>
</svg>
