<svg xmlns="http://www.w3.org/2000/svg" width="25" height="25" viewBox="0 0 25 25">
  <g id="Layer_2" data-name="Layer 2" transform="translate(60 0.014)">
    <g id="Color" transform="translate(0 0.458)">
      <g id="_04.Twitter" data-name="04.Twitter">
        <circle id="Background" cx="12.5" cy="12.5" r="12.5" transform="translate(-60 -0.472)" fill="#03a9f4"/>
        <path id="Icon" d="M43,37.552a6.912,6.912,0,0,1-1.914.525,3.3,3.3,0,0,0,1.461-1.837,6.636,6.636,0,0,1-2.107.8,3.321,3.321,0,0,0-5.747,2.271,3.435,3.435,0,0,0,.077.757A9.407,9.407,0,0,1,27.922,36.6a3.324,3.324,0,0,0,1.022,4.444,3.278,3.278,0,0,1-1.5-.41v.036A3.338,3.338,0,0,0,30.1,43.931a3.313,3.313,0,0,1-.871.109,2.962,2.962,0,0,1-.63-.056A3.356,3.356,0,0,0,31.709,46.3a6.68,6.68,0,0,1-4.114,1.417,6,6,0,0,1-.795-.046,9.46,9.46,0,0,0,14.558-7.962c0-.146,0-.288-.012-.43A6.61,6.61,0,0,0,43,37.552Z" transform="translate(-82.389 -30.557)" fill="#fff"/>
      </g>
    </g>
  </g>
</svg>
