<svg xmlns="http://www.w3.org/2000/svg" width="115.981" height="114.981" viewBox="0 0 115.981 114.981">
  <g id="Group_97304" data-name="Group 97304" transform="translate(-320 -1438)">
    <circle id="Ellipse_29" data-name="Ellipse 29" cx="56" cy="56" r="56" transform="translate(320 1438)" fill="#eefafe"/>
    <g id="THR_money_in_envelope_" data-name="THR (money in envelope)" transform="translate(356 1473)">
      <path id="Path_14346" data-name="Path 14346" d="M79.981,38.075c-.15-.983-.183-.783-6.882-5.165,5.949-22.345,5.815-21.045,5.332-21.895s.383-.4-18.446-5.449v-3.9A1.666,1.666,0,0,0,58.32,0H21.662A1.666,1.666,0,0,0,20,1.666v3.9L2.566,10.231a1.666,1.666,0,0,0-1.183,2.05L6.915,32.909C.35,37.191.25,37.058.05,37.908,0,38.324,0,36.475,0,73.316a6.665,6.665,0,0,0,6.665,6.665H73.316a6.665,6.665,0,0,0,6.665-6.665ZM56.737,54.387l20-12.98c0,34.842,0,32.093-.117,32.759ZM75.266,38.324l-4.432,2.883,1.316-4.916ZM74.983,13.03C74.116,16.263,78.1,1.366,66.651,43.94l-6.665,4.382V15.913l3.849,1.033a5.115,5.115,0,0,0,2.15,3.732L63.752,29.01a1.673,1.673,0,0,0,3.233.866l2.583-9.648a1.666,1.666,0,0,0-1.25-2.05,1.666,1.666,0,0,1-1.166-2.05,1.666,1.666,0,0,0-1.183-2.05l-5.982-1.616V9.015Zm-18.329-9.7V50.455L39.991,61.336,23.328,50.455V3.333ZM3.449,74.166c-.117-.667-.117,2.033-.117-32.759l20,12.98ZM20,9.015v3.449L13.947,14.13a1.666,1.666,0,0,0-1.183,2.05,1.666,1.666,0,0,1-1.1,2,1.666,1.666,0,0,0-1.183,2.033L13,29.86a1.673,1.673,0,1,0,3.233-.866L14,20.662a5.115,5.115,0,0,0,2.15-3.732L20,15.913V48.322L13.33,43.94C12.064,39.241,6.3,17.729,5,13.03ZM9.148,41.207,4.716,38.324l3.116-2.033ZM5.815,76.532l20.279-20.3c13.464,8.8,13.514,9.331,14.813,8.481l12.98-8.481,20.279,20.3c-.85.217-67.668.117-68.351,0Z" fill="#5c77b9"/>
      <path id="Path_14347" data-name="Path 14347" d="M19.333,19V10.382a5,5,0,0,0,3.049-3.049h13.9a5,5,0,0,0,3.049,3.049V19a1.666,1.666,0,1,0,3.333,0V9a1.666,1.666,0,0,0-1.666-1.666,1.666,1.666,0,0,1-1.666-1.666A1.666,1.666,0,0,0,37.662,4H21a1.666,1.666,0,0,0-1.666,1.666,1.666,1.666,0,0,1-1.666,1.666A1.666,1.666,0,0,0,16,9V19a1.666,1.666,0,1,0,3.333,0Z" transform="translate(10.66 2.665)" fill="#5c77b9"/>
      <path id="Path_14348" data-name="Path 14348" d="M29.33,40.66A13.33,13.33,0,1,0,16,27.33,13.33,13.33,0,0,0,29.33,40.66Zm0-23.328a10,10,0,1,1-10,10,10,10,0,0,1,10-10Z" transform="translate(10.66 9.328)" fill="#5c77b9"/>
      <path id="Path_14349" data-name="Path 14349" d="M24.033,9.13a1.666,1.666,0,1,0,1.557.155,1.666,1.666,0,0,0-1.557-.155Z" transform="translate(15.324 6)" fill="#5c77b9"/>
      <path id="Path_14365" data-name="Path 14365" d="M24.978,54.546,3.874,76.285l1.353,1.776H74.339l2.022-1.776L54.808,54.546l-15.1,8.391Z" fill="#5c77b9"/>
    </g>
  </g>
</svg>
